<?xml version="1.0" encoding="UTF-8"?>
<svg xmlns="http://www.w3.org/2000/svg" xmlns:xlink="http://www.w3.org/1999/xlink" width="4713" height="3361" viewBox="0 0 4713 3361">
<path fill-rule="evenodd" fill="rgb(100%, 100%, 100%)" fill-opacity="1" d="M 0.339844 0.941406 L 4712.609375 0.941406 L 4712.609375 3360.929688 L 0.339844 3360.929688 L 0.339844 0.941406 "/>
<path fill-rule="evenodd" fill="rgb(97.65625%, 70.896912%, 10.984802%)" fill-opacity="1" d="M 2356.46875 293.160156 C 3122.910156 293.160156 3744.238281 914.488281 3744.238281 1680.929688 C 3744.238281 2447.375 3122.910156 3068.699219 2356.46875 3068.699219 C 1590.03125 3068.699219 968.703125 2447.375 968.703125 1680.929688 C 968.703125 914.488281 1590.03125 293.160156 2356.46875 293.160156 "/>
<path fill-rule="evenodd" fill="rgb(97.65625%, 99.609375%, 98.4375%)" fill-opacity="1" d="M 3181.800781 2796.636719 C 2951.121094 2967.570312 2665.621094 3068.699219 2356.46875 3068.699219 C 2065.089844 3068.699219 1794.730469 2978.824219 1571.460938 2825.386719 C 1759.828125 2752.773438 1851.671875 2747.929688 1851.671875 2747.929688 L 2058.488281 2476.117188 C 2058.488281 2476.117188 2106.601562 2398.449219 2112.511719 2319.949219 C 2118.421875 2241.441406 2120.949219 2175.601562 2120.949219 2175.601562 C 2120.949219 2175.601562 1953.808594 2109.761719 1890.5 2028.71875 C 1827.191406 1947.679688 1818.75 1876.769531 1818.75 1876.769531 C 1818.75 1876.769531 1569.730469 1852.300781 1537.648438 1653.078125 C 1505.578125 1453.859375 1633.878906 1398.148438 1633.878906 1398.148438 C 1633.878906 1398.148438 1579.859375 1170.238281 1637.261719 937.261719 C 1694.660156 704.269531 1779.078125 672.191406 1779.078125 672.191406 C 1779.078125 672.191406 1714.921875 612.261719 1828.878906 559.070312 C 1942.839844 505.890625 2253.480469 556.539062 2363.21875 567.519531 C 2472.960938 578.488281 2514.320312 592.839844 2514.320312 592.839844 C 2514.320312 592.839844 2489 487.738281 2543.441406 494.070312 C 2597.890625 500.410156 2627.859375 600.011719 2627.859375 600.011719 C 2627.859375 600.011719 2717.339844 509.269531 2743.511719 534.589844 C 2769.671875 559.921875 2700.03125 656.148438 2700.03125 656.148438 C 2700.03125 656.148438 2909.800781 753.21875 2949.480469 945.691406 C 2989.148438 1138.160156 2939.339844 1350.878906 2939.339844 1350.878906 C 2939.339844 1350.878906 3101.421875 1354.261719 3130.121094 1502.820312 C 3158.820312 1651.390625 3036.421875 1783.070312 2946.101562 1818.539062 C 2855.769531 1853.988281 2800.898438 1833.71875 2800.898438 1833.71875 C 2800.898438 1833.71875 2768.828125 1929.960938 2723.238281 1987.359375 C 2677.660156 2044.761719 2623.628906 2067.558594 2623.628906 2067.558594 C 2623.628906 2067.558594 2616.878906 2269.308594 2644.738281 2363.851562 C 2672.601562 2458.394531 2676.820312 2473.585938 2676.820312 2465.988281 C 2676.820312 2458.394531 2767.980469 2540.273438 2795 2578.261719 C 2822.011719 2616.242188 2832.140625 2639.882812 2832.140625 2639.882812 C 2832.140625 2639.882812 3062.691406 2741.023438 3181.800781 2796.636719 "/>
<path fill-rule="evenodd" fill="rgb(65.818787%, 65.429688%, 72.851562%)" fill-opacity="1" d="M 1831.148438 2750.273438 C 1844.851562 2748.292969 1851.671875 2747.929688 1851.671875 2747.929688 L 2058.488281 2476.117188 C 2058.488281 2476.117188 2085.519531 2432.476562 2101.550781 2377.554688 C 2260.71875 2357.679688 2494.460938 2412.070312 2675.589844 2466.226562 C 2676.421875 2468.160156 2676.738281 2468.050781 2676.800781 2466.585938 C 2678.800781 2467.1875 2680.78125 2467.785156 2682.769531 2468.382812 C 2703.441406 2482.632812 2772.148438 2546.136719 2795 2578.261719 C 2822.011719 2616.242188 2832.140625 2639.882812 2832.140625 2639.882812 C 2832.140625 2639.882812 2863.730469 2653.742188 2909.558594 2674.019531 C 2874.75 2758.886719 2810.320312 2865.148438 2698.75 2900.738281 C 2502.910156 2963.199219 2323.949219 2774.117188 2323.949219 2774.117188 C 2323.949219 2774.117188 2264.859375 2870.351562 2074.089844 2915.929688 C 1929.160156 2950.554688 1857.320312 2816.648438 1831.148438 2750.273438 "/>
<path fill-rule="evenodd" fill="rgb(31.37207%, 19.604492%, 10.205078%)" fill-opacity="1" d="M 1562.578125 1468.21875 C 1592.480469 1416.148438 1633.878906 1398.148438 1633.878906 1398.148438 C 1633.878906 1398.148438 1579.859375 1170.238281 1637.261719 937.261719 C 1694.660156 704.269531 1779.078125 672.191406 1779.078125 672.191406 C 1779.078125 672.191406 1714.921875 612.261719 1828.878906 559.070312 C 1942.839844 505.890625 2253.480469 556.539062 2363.21875 567.519531 C 2472.960938 578.488281 2514.320312 592.839844 2514.320312 592.839844 C 2514.320312 592.839844 2489 487.738281 2543.441406 494.070312 C 2597.890625 500.410156 2627.859375 600.011719 2627.859375 600.011719 C 2627.859375 600.011719 2717.339844 509.269531 2743.511719 534.589844 C 2769.671875 559.921875 2700.03125 656.148438 2700.03125 656.148438 C 2700.03125 656.148438 2909.800781 753.21875 2949.480469 945.691406 C 2989.148438 1138.160156 2939.339844 1350.878906 2939.339844 1350.878906 C 2939.339844 1350.878906 3050.25 1353.191406 3104.828125 1438.101562 C 3075.890625 1631.429688 2963.359375 1604.710938 2273.308594 1629.460938 C 1868.71875 1643.960938 1665.050781 1559.96875 1562.578125 1468.21875 "/>
<path fill-rule="evenodd" fill="rgb(40.380859%, 25.87738%, 15.696716%)" fill-opacity="1" d="M 1685.671875 793.070312 C 1732.921875 689.761719 1779.078125 672.191406 1779.078125 672.191406 C 1779.078125 672.191406 1714.921875 612.261719 1828.878906 559.070312 C 1942.839844 505.890625 2253.480469 556.539062 2363.21875 567.519531 C 2472.960938 578.488281 2514.320312 592.839844 2514.320312 592.839844 C 2514.320312 592.839844 2489 487.738281 2543.441406 494.070312 C 2597.890625 500.410156 2627.859375 600.011719 2627.859375 600.011719 C 2627.859375 600.011719 2717.339844 509.269531 2743.511719 534.589844 C 2769.671875 559.921875 2700.03125 656.148438 2700.03125 656.148438 C 2700.03125 656.148438 2723.050781 666.808594 2755.269531 688.039062 C 2674.839844 723.488281 2569.671875 764.820312 2432.011719 812.320312 C 2116.628906 921.140625 1856.671875 865.75 1685.671875 793.070312 "/>
<path fill-rule="evenodd" fill="rgb(98.046875%, 80.46875%, 65.039062%)" fill-opacity="1" d="M 2019.671875 2527.132812 L 2058.488281 2476.117188 C 2058.488281 2476.117188 2106.601562 2398.449219 2112.511719 2319.949219 C 2118.421875 2241.441406 2120.949219 2175.601562 2120.949219 2175.601562 C 2120.949219 2175.601562 1953.808594 2109.761719 1890.5 2028.71875 C 1827.191406 1947.679688 1818.75 1876.769531 1818.75 1876.769531 C 1818.75 1876.769531 1569.730469 1852.300781 1537.648438 1653.078125 C 1505.578125 1453.859375 1633.878906 1398.148438 1633.878906 1398.148438 C 1675.679688 1386.320312 1720.398438 1413.351562 1720.398438 1413.351562 L 1735.589844 1215.820312 C 1735.589844 1215.820312 1794.679688 1210.761719 1980.390625 1099.328125 C 2166.109375 987.910156 2242.078125 819.070312 2242.078125 819.070312 C 2242.078125 819.070312 2208.308594 955.820312 2267.398438 1070.628906 C 2326.488281 1185.441406 2662.460938 852.839844 2662.460938 852.839844 C 2662.460938 852.839844 2775.578125 1467.378906 2829.601562 1518.019531 C 2883.628906 1568.671875 2939.339844 1350.878906 2939.339844 1350.878906 C 2939.339844 1350.878906 3101.421875 1354.261719 3130.121094 1502.820312 C 3158.820312 1651.390625 3036.421875 1783.070312 2946.101562 1818.539062 C 2855.769531 1853.988281 2800.898438 1833.71875 2800.898438 1833.71875 C 2800.898438 1833.71875 2768.828125 1929.960938 2723.238281 1987.359375 C 2677.660156 2044.761719 2623.628906 2067.558594 2623.628906 2067.558594 C 2623.628906 2067.558594 2616.878906 2269.308594 2644.738281 2363.851562 C 2672.601562 2458.394531 2676.820312 2473.585938 2676.820312 2465.988281 C 2676.820312 2461.394531 2710.179688 2489.550781 2742.519531 2520.910156 C 2661.699219 2557.042969 2523.949219 2606.355469 2361.949219 2613.71875 C 2227.171875 2619.84375 2105.558594 2573.34375 2019.671875 2527.132812 "/>
<path fill-rule="evenodd" fill="rgb(92.96875%, 62.693787%, 42.747498%)" fill-opacity="1" d="M 2113.28125 2309.488281 C 2118.640625 2235.691406 2120.949219 2175.601562 2120.949219 2175.601562 C 2120.949219 2175.601562 2219.28125 2208.539062 2404.148438 2171.390625 C 2561.679688 2139.738281 2612.078125 2085.738281 2623.550781 2070.460938 C 2623.511719 2071.960938 2623.449219 2073.988281 2623.398438 2076.550781 C 2609.609375 2121.441406 2546.269531 2300.859375 2403.308594 2343.601562 C 2273.320312 2382.457031 2156.109375 2331.96875 2113.28125 2309.488281 "/>
<path fill-rule="evenodd" fill="rgb(87.109375%, 32.151794%, 30.200195%)" fill-opacity="1" d="M 2510.828125 3060.199219 C 2460.148438 3065.804688 2408.648438 3068.699219 2356.46875 3068.699219 C 2320.078125 3068.699219 2284.011719 3067.300781 2248.320312 3064.550781 C 2253.730469 3041.007812 2261.539062 3013.960938 2271.628906 2988.511719 C 2291.039062 2939.554688 2307.078125 2901.570312 2307.078125 2901.570312 C 2307.078125 2901.570312 2214.230469 2789.300781 2186.371094 2731.898438 C 2158.511719 2674.492188 2158.511719 2667.742188 2158.511719 2667.742188 C 2158.511719 2667.742188 2322.5 2560.300781 2341.378906 2562.523438 C 2360.261719 2564.757812 2432.011719 2575.730469 2432.011719 2575.730469 L 2581.429688 2672.804688 C 2581.429688 2672.804688 2570.449219 2780.011719 2511.359375 2843.324219 C 2452.269531 2906.632812 2450.578125 2906.632812 2450.578125 2906.632812 C 2450.578125 2906.632812 2485.808594 2986.882812 2510.828125 3060.199219 "/>
<path fill-rule="evenodd" fill="rgb(61.521912%, 7.054138%, 5.880737%)" fill-opacity="1" d="M 2286.589844 2951.230469 C 2298.640625 2921.5625 2307.078125 2901.570312 2307.078125 2901.570312 C 2307.078125 2901.570312 2333.25 2918.449219 2387.269531 2918.449219 C 2441.300781 2918.449219 2450.578125 2906.632812 2450.578125 2906.632812 C 2450.578125 2906.632812 2464.699219 2938.773438 2481.390625 2980.960938 C 2460.28125 3002.945312 2432.628906 3020.59375 2398.25 3020.59375 C 2338.820312 3020.59375 2303.789062 2979.699219 2286.589844 2951.230469 "/>
<path fill-rule="evenodd" fill="rgb(0%, 3.529358%, 21.18988%)" fill-opacity="1" d="M 3181.800781 2796.636719 C 3119.390625 2842.886719 3052.949219 2884.011719 2983.128906 2919.425781 C 2954.75 2829.457031 2902.96875 2725.910156 2863.898438 2653.863281 C 2931.25 2683.535156 3089.769531 2753.675781 3181.800781 2796.636719 Z M 1889.679688 2988.1875 C 1776.039062 2947.582031 1669.230469 2892.574219 1571.460938 2825.386719 C 1759.828125 2752.773438 1851.671875 2747.929688 1851.671875 2747.929688 L 2006.140625 2544.910156 C 2127.390625 2561.695312 2223.511719 2585.863281 2223.511719 2585.863281 C 2223.511719 2585.863281 2223.511719 2585.863281 2042.871094 2758.070312 C 1957.710938 2839.242188 1913.078125 2922.667969 1889.679688 2988.1875 "/>
<path fill-rule="evenodd" fill="rgb(97.65625%, 100%, 100%)" fill-opacity="1" d="M 1848.640625 2748.160156 C 1850.660156 2747.988281 1851.671875 2747.929688 1851.671875 2747.929688 L 2058.488281 2476.117188 C 2058.488281 2476.117188 2059.058594 2475.1875 2060.089844 2473.429688 C 2102.710938 2508.488281 2167.449219 2547.570312 2253.898438 2560.535156 C 2416.371094 2584.90625 2657.75 2474.832031 2675.710938 2466.507812 C 2676.550781 2468.367188 2676.820312 2467.898438 2676.820312 2465.988281 L 2684.128906 2469.335938 C 2706.289062 2485.273438 2772.628906 2546.8125 2795 2578.261719 C 2822.011719 2616.242188 2832.140625 2639.882812 2832.140625 2639.882812 L 2833.371094 2640.425781 C 2828.300781 2713.054688 2801.320312 2799.363281 2704.671875 2815.46875 C 2532.46875 2844.167969 2355.199219 2574.042969 2355.199219 2574.042969 C 2355.199219 2574.042969 2074.941406 2871.179688 1941.570312 2850.925781 C 1883.660156 2842.125 1858.539062 2796.71875 1848.640625 2748.160156 "/>
</svg>
