<?xml version="1.0" encoding="UTF-8"?>
<svg xmlns="http://www.w3.org/2000/svg" xmlns:xlink="http://www.w3.org/1999/xlink" width="4713" height="3361" viewBox="0 0 4713 3361">
<path fill-rule="evenodd" fill="rgb(100%, 100%, 100%)" fill-opacity="1" d="M 0.628906 0.308594 L 4712.898438 0.308594 L 4712.898438 3360.300781 L 0.628906 3360.300781 L 0.628906 0.308594 "/>
<path fill-rule="evenodd" fill="rgb(97.65625%, 70.506287%, 14.109802%)" fill-opacity="1" d="M 2356.761719 295.46875 C 3121.589844 295.46875 3741.601562 915.480469 3741.601562 1680.308594 C 3741.601562 2445.132812 3121.589844 3065.144531 2356.761719 3065.144531 C 1591.941406 3065.144531 971.925781 2445.132812 971.925781 1680.308594 C 971.925781 915.480469 1591.941406 295.46875 2356.761719 295.46875 "/>
<path fill-rule="evenodd" fill="rgb(98.4375%, 70.506287%, 47.459412%)" fill-opacity="1" d="M 3185.519531 2789.886719 C 2954.429688 2962.761719 2667.558594 3065.144531 2356.761719 3065.144531 C 2065.699219 3065.144531 1795.660156 2975.277344 1572.738281 2821.882812 C 1617.089844 2784.363281 1686.660156 2737.21875 1781.199219 2707.496094 C 1958.410156 2651.769531 2084.46875 2638.980469 2084.46875 2638.980469 L 2085.378906 2485.519531 L 2048.839844 2563.164062 C 2048.839844 2563.164062 2043.351562 2452.640625 1990.371094 2378.644531 C 1937.390625 2304.648438 1899.929688 2290.949219 1883.488281 2223.351562 C 1867.050781 2155.75 1862.480469 2118.300781 1862.480469 2118.300781 C 1862.480469 2118.300781 1800.359375 2217.871094 1818.628906 2295.519531 C 1836.910156 2373.164062 1935.558594 2422.492188 1949.269531 2498.3125 C 1962.96875 2574.128906 1889.890625 2594.226562 1889.890625 2594.226562 C 1889.890625 2594.226562 1930.078125 2514.757812 1884.410156 2463.597656 C 1838.738281 2412.441406 1716.320312 2372.253906 1721.800781 2281.808594 C 1727.289062 2191.371094 1771.128906 2133.820312 1771.128906 2133.820312 C 1771.128906 2133.820312 1611.28125 2081.75 1582.039062 1935.589844 C 1552.808594 1789.441406 1682.511719 1661.558594 1682.511719 1661.558594 C 1682.511719 1661.558594 1609.429688 1285.21875 1788.46875 1033.101562 C 1967.511719 780.980469 2115.488281 764.539062 2115.488281 764.539062 C 2115.488281 764.539062 2077.128906 499.621094 2283.578125 415.589844 C 2490.019531 331.550781 2700.121094 495.980469 2738.480469 634.820312 C 2776.851562 773.671875 2756.761719 790.109375 2756.761719 790.109375 C 2756.761719 790.109375 2999.738281 855.878906 3100.21875 1133.578125 C 3200.699219 1411.28125 3153.199219 1670.710938 3153.199219 1670.710938 C 3153.199219 1670.710938 3301.179688 1798.589844 3240.878906 1972.148438 C 3180.589844 2145.71875 3094.730469 2156.679688 3094.730469 2156.679688 C 3094.730469 2156.679688 3169.621094 2286.398438 3093.800781 2353.078125 C 3017.980469 2419.769531 2929.371094 2473.667969 2936.679688 2512.03125 C 2943.988281 2550.398438 3007.929688 2530.300781 3007.929688 2530.300781 C 3007.929688 2530.300781 2903.789062 2619.824219 2882.78125 2540.347656 C 2861.78125 2460.875 2934.859375 2405.152344 2983.269531 2358.558594 C 3031.679688 2311.96875 2996.058594 2193.21875 2996.058594 2193.21875 C 2996.058594 2193.21875 2964.988281 2311.058594 2895.570312 2373.179688 C 2826.148438 2435.296875 2867.25 2495.589844 2843.5 2534.867188 C 2819.75 2574.148438 2776.820312 2587.851562 2776.820312 2587.851562 C 2776.820312 2587.851562 2793.261719 2569.582031 2778.640625 2530.300781 C 2764.03125 2491.019531 2742.109375 2480.058594 2742.109375 2480.058594 L 2739.371094 2623.476562 C 2739.371094 2623.476562 2961.328125 2668.242188 3127.578125 2757.765625 C 3148.910156 2769.246094 3168.148438 2779.949219 3185.519531 2789.886719 "/>
<path fill-rule="evenodd" fill="rgb(79.6875%, 56.054688%, 36.473083%)" fill-opacity="1" d="M 2787.449219 2583.503906 C 2780.988281 2586.519531 2776.820312 2587.851562 2776.820312 2587.851562 C 2776.820312 2587.851562 2793.261719 2569.582031 2778.640625 2530.300781 C 2764.03125 2491.019531 2742.109375 2480.058594 2742.109375 2480.058594 L 2739.371094 2623.476562 C 2739.371094 2623.476562 2756.441406 2626.921875 2784.628906 2633.800781 C 2780.339844 2711.15625 2776.640625 2780.921875 2776.640625 2791.648438 C 2776.640625 2817.226562 2771.160156 2784.339844 2723.660156 2716.742188 C 2676.160156 2649.144531 2524.519531 2610.78125 2389.320312 2618.082031 C 2254.128906 2625.386719 2133.550781 2413.46875 2133.550781 2413.46875 C 2133.550781 2413.46875 2307.109375 2530.390625 2471.53125 2512.121094 C 2635.96875 2493.851562 2731.96875 2404.292969 2731.96875 2404.292969 L 2797.660156 2405.246094 C 2797.660156 2405.246094 2792.601562 2492.039062 2787.449219 2583.503906 "/>
<path fill-rule="evenodd" fill="rgb(36.083984%, 9.397888%, 34.130859%)" fill-opacity="1" d="M 3185.519531 2789.886719 C 3006.851562 2923.550781 2794.808594 3015.058594 2564.160156 3049.699219 C 2623.71875 3020.175781 2671.570312 2975.25 2692.628906 2922.265625 C 2752.921875 2770.621094 2739.371094 2623.476562 2739.371094 2623.476562 C 2739.371094 2623.476562 2961.328125 2668.242188 3127.578125 2757.765625 C 3148.910156 2769.246094 3168.148438 2779.949219 3185.519531 2789.886719 Z M 2288.359375 3063.476562 C 2023.441406 3050.582031 1778.101562 2963.191406 1572.738281 2821.882812 C 1617.089844 2784.363281 1686.660156 2737.21875 1781.199219 2707.496094 C 1958.410156 2651.769531 2084.46875 2638.980469 2084.46875 2638.980469 C 2084.46875 2638.980469 2060.488281 2852.839844 2206.648438 3006.300781 C 2230.78125 3031.632812 2258.558594 3050.410156 2288.359375 3063.476562 Z M 1896.539062 2591.871094 C 1892.460938 2593.519531 1889.890625 2594.226562 1889.890625 2594.226562 L 1890.398438 2593.171875 L 1896.539062 2591.871094 "/>
<path fill-rule="evenodd" fill="rgb(98.826599%, 100%, 94.139099%)" fill-opacity="1" d="M 2957.910156 2928.195312 C 2895.691406 2958.226562 2830.878906 2983.734375 2763.910156 3004.308594 C 2847.121094 2889.328125 2849.480469 2734.332031 2842.898438 2648.996094 C 2880.230469 2659.347656 2924.648438 2672.847656 2971 2689.492188 C 2964.160156 2757.234375 2960.101562 2853.765625 2957.910156 2928.195312 Z M 1842.210938 2689.363281 C 1859.78125 2762.921875 1880.96875 2867.609375 1885.109375 2958.800781 L 1886.171875 2983.070312 C 1963.980469 3011.195312 2045.03125 3032.550781 2128.609375 3046.414062 C 2112.53125 3031.71875 2098.761719 3015.320312 2087.898438 2997.164062 C 2009.75 2866.488281 2014.261719 2722.34375 2023.921875 2647.878906 C 1981.191406 2655.269531 1918.140625 2668.09375 1842.210938 2689.363281 "/>
<path fill-rule="evenodd" fill="rgb(35.693359%, 10.205078%, 34.910583%)" fill-opacity="1" d="M 2085.179688 2485.953125 L 2048.839844 2563.164062 C 2048.839844 2563.164062 2043.351562 2452.640625 1990.371094 2378.644531 C 1937.390625 2304.648438 1899.929688 2290.949219 1883.488281 2223.351562 C 1867.050781 2155.75 1862.480469 2118.300781 1862.480469 2118.300781 C 1845.921875 2034.308594 1880.628906 1908.261719 1875.140625 1784.019531 C 1869.660156 1659.789062 1862.359375 1632.378906 1862.359375 1632.378906 C 1862.359375 1632.378906 2034.101562 1563.871094 2065.148438 1424.109375 C 2096.210938 1284.339844 2090.730469 1248.710938 2090.730469 1248.710938 C 2090.730469 1248.710938 2177.488281 1494.449219 2366.578125 1492.621094 C 2555.671875 1490.789062 2849.808594 1523.679688 2899.128906 1686.28125 C 2948.46875 1848.878906 2973.121094 2102.839844 2971.300781 2111.980469 C 2969.480469 2121.109375 2837.929688 2327.558594 2789.519531 2365.929688 C 2741.101562 2404.292969 2731.96875 2404.292969 2731.96875 2404.292969 L 2742.109375 2480.058594 C 2742.109375 2480.058594 2764.03125 2491.019531 2778.640625 2530.300781 C 2793.261719 2569.582031 2776.820312 2587.851562 2776.820312 2587.851562 C 2776.820312 2587.851562 2819.75 2574.148438 2843.5 2534.867188 C 2867.25 2495.589844 2826.148438 2435.296875 2895.570312 2373.179688 C 2964.988281 2311.058594 2996.058594 2193.21875 2996.058594 2193.21875 C 2996.058594 2193.21875 3031.679688 2311.96875 2983.269531 2358.558594 C 2934.859375 2405.152344 2861.78125 2460.875 2882.78125 2540.347656 C 2903.789062 2619.824219 3007.929688 2530.300781 3007.929688 2530.300781 C 3007.929688 2530.300781 2943.988281 2550.398438 2936.679688 2512.03125 C 2929.371094 2473.667969 3017.980469 2419.769531 3093.800781 2353.078125 C 3169.621094 2286.398438 3094.730469 2156.679688 3094.730469 2156.679688 C 3094.730469 2156.679688 3097 2156.378906 3101.058594 2155.148438 C 3101.058594 2155.148438 3028.808594 2122.949219 3019.679688 2005.109375 C 3010.539062 1887.28125 3013.261719 1692.710938 3075.378906 1672.609375 C 3109.191406 1661.671875 3136.230469 1663.179688 3153.851562 1666.828125 C 3159.199219 1633.769531 3193.578125 1391.589844 3100.21875 1133.578125 C 2999.738281 855.878906 2756.761719 790.109375 2756.761719 790.109375 C 2756.761719 790.109375 2776.851562 773.671875 2738.480469 634.820312 C 2700.121094 495.980469 2490.019531 331.550781 2283.578125 415.589844 C 2077.128906 499.621094 2115.488281 764.539062 2115.488281 764.539062 C 2115.488281 764.539062 1967.511719 780.980469 1788.46875 1033.101562 C 1609.429688 1285.21875 1682.511719 1661.558594 1682.511719 1661.558594 C 1682.511719 1661.558594 1794.679688 1644.308594 1807.46875 1820.609375 C 1820.25 1996.910156 1790.519531 2121.839844 1771.128906 2133.820312 C 1771.128906 2133.820312 1727.289062 2191.371094 1721.800781 2281.808594 C 1716.320312 2372.253906 1838.738281 2412.441406 1884.410156 2463.597656 C 1930.078125 2514.757812 1889.890625 2594.226562 1889.890625 2594.226562 C 1889.890625 2594.226562 1962.96875 2574.128906 1949.269531 2498.3125 C 1935.558594 2422.492188 1836.910156 2373.164062 1818.628906 2295.519531 C 1800.359375 2217.871094 1862.480469 2118.300781 1862.480469 2118.300781 C 1879.050781 2202.289062 2084.359375 2386.890625 2084.359375 2386.890625 L 2085.179688 2485.953125 "/>
</svg>
